<svg width="215" height="78" viewBox="0 0 215 78" fill="none" xmlns="http://www.w3.org/2000/svg">
<g clip-path="url(#clip0)">
<path d="M0 18.3344V0H9.92115V17.9564C9.92115 21.9887 10.8002 24.0048 14.3794 24.0048C17.8957 24.0048 18.7748 21.9887 18.7748 17.8934V0H28.7588V18.2714C28.7588 27.6591 23.1703 31.8174 14.3794 31.8174C5.14895 31.8174 0 27.2811 0 18.3344Z" fill="black"/>
<path d="M34.2217 0H47.0313C55.6966 0 60.1548 3.46527 60.1548 10.1438V10.3328C60.1548 14.6801 57.9571 17.1373 54.8803 18.5234L62.0386 31.3134H51.5523L45.7126 20.6026H44.1428V31.3134H34.2217V0ZM46.4661 14.1761C49.229 14.1761 50.5476 13.042 50.5476 10.7738V10.5848C50.5476 8.31664 49.1662 7.43457 46.5289 7.43457H44.1428V14.1761H46.4661Z" fill="black"/>
<path d="M65.3665 0H80.1854C87.9088 0 90.8601 3.52827 90.8601 8.19063V8.37964C90.8601 12.0339 88.9135 14.3021 85.3972 15.1212C89.1019 15.7512 91.6764 18.0194 91.6764 22.4297V22.6187C91.6764 28.1632 88.0972 31.3134 80.0598 31.3134H65.3037V0H65.3665ZM78.1133 12.2229C80.5622 12.2229 81.5668 11.4039 81.5668 9.45073V9.26171C81.5668 7.37157 80.5622 6.4895 78.1133 6.4895H75.1621V12.2229H78.1133ZM78.2389 24.7609C80.8133 24.7609 81.9436 23.5638 81.9436 21.4846V21.2956C81.9436 19.2165 80.8133 18.0824 77.9877 18.0824H75.0365V24.6979H78.2389V24.7609Z" fill="black"/>
<path d="M108.379 8.00161L111.456 19.3425H105.24L108.379 8.00161ZM102.602 0L92.7439 31.2504H101.974L103.356 26.021H113.277L114.721 31.2504H125.27L115.475 0H102.602Z" fill="black"/>
<path d="M148.566 0V16.5073L139.712 0H128.535V31.2504H137.326V12.538L147.813 31.2504H157.294V0H148.566Z" fill="black"/>
<path d="M29.7007 33.7075V54.3101H3.70478V33.7075H0.251221V77.9999H3.70478V57.2713H29.7007V77.9999H33.1543V33.7075H29.7007Z" fill="#8FCBB2"/>
<path d="M44.5195 33.7075V77.9999H70.955V75.1647H47.9731V56.7043H65.7432V53.8691H47.9731V36.5427H69.8875V33.7075H44.5195Z" fill="#8FCBB2"/>
<path d="M94.1253 36.5427L103.105 61.6187H85.2089L94.1253 36.5427ZM91.9904 33.7075L76.104 77.9999H79.3692L84.2042 64.4539H104.109L109.007 77.9999H112.461L96.5742 33.7075H91.9904Z" fill="#8FCBB2"/>
<path d="M120.121 33.7075V77.9999H144.987V75.1647H123.575V33.7075H120.121Z" fill="#8FCBB2"/>
<path d="M143.794 33.7075V36.5427H157.483V77.9999H160.873V36.5427H174.562V33.7075H143.794Z" fill="#8FCBB2"/>
<path d="M211.546 33.7075V54.3101H185.55V33.7075H182.097V77.9999H185.55V57.2713H211.546V77.9999H215V33.7075H211.546Z" fill="#8FCBB2"/>
</g>
<defs>
<clipPath id="clip0">
<rect width="215" height="78" fill="white"/>
</clipPath>
</defs>
</svg>
